HIERARCHY
ROOT joint_Root
{
	OFFSET 0.0 0.0 0.0
	CHANNELS 6 Xposition Yposition Zposition Zrotation Xrotation Yrotation 
	JOINT Hips
	{
		OFFSET -17.1583 93.1646 452.98
		CHANNELS 6 Xposition Yposition Zposition Zrotation Xrotation Yrotation 
		JOINT Spine
		{
			OFFSET 15.7357 0.0 0.0
			CHANNELS 6 Xposition Yposition Zposition Zrotation Xrotation Yrotation 
			JOINT Chest
			{
				OFFSET 8.98455 -0.406207 0.0
				CHANNELS 6 Xposition Yposition Zposition Zrotation Xrotation Yrotation 
				JOINT Neck
				{
					OFFSET 16.3773 0.0 0.0
					CHANNELS 6 Xposition Yposition Zposition Zrotation Xrotation Yrotation 
					JOINT Head
					{
						OFFSET 6.45672 0.0 0.0
						CHANNELS 6 Xposition Yposition Zposition Zrotation Xrotation Yrotation 
						End Site
						{
							OFFSET 0.0 0.0 0.0
						}
					}
				}
				JOINT Shoulder_L
				{
					OFFSET 12.9942 -0.242716 4.98039
					CHANNELS 6 Xposition Yposition Zposition Zrotation Xrotation Yrotation 
					JOINT UpperArm_L
					{
						OFFSET 5.34809 0.0 0.0
						CHANNELS 6 Xposition Yposition Zposition Zrotation Xrotation Yrotation 
						JOINT LowerArm_L
						{
							OFFSET 24.3286 1.87007e-05 0.0
							CHANNELS 6 Xposition Yposition Zposition Zrotation Xrotation Yrotation 
							JOINT Hand_L
							{
								OFFSET 22.2916 0.0 0.0
								CHANNELS 6 Xposition Yposition Zposition Zrotation Xrotation Yrotation 
								End Site
								{
									OFFSET 0.0 0.0 0.0
								}
							}
						}
					}
				}
				JOINT Shoulder_R
				{
					OFFSET 12.9945 -0.242716 -4.98039
					CHANNELS 6 Xposition Yposition Zposition Zrotation Xrotation Yrotation 
					JOINT UpperArm_R
					{
						OFFSET -5.34813 0.0 0.0
						CHANNELS 6 Xposition Yposition Zposition Zrotation Xrotation Yrotation 
						JOINT LowerArm_R
						{
							OFFSET -24.3289 0.000322201 0.0
							CHANNELS 6 Xposition Yposition Zposition Zrotation Xrotation Yrotation 
							JOINT Hand_R
							{
								OFFSET -22.2915 -0.000108084 0.0
								CHANNELS 6 Xposition Yposition Zposition Zrotation Xrotation Yrotation 
								End Site
								{
									OFFSET 0.0 0.0 0.0
								}
							}
						}
					}
				}
			}
		}
		JOINT UpperLeg_L
		{
			OFFSET -2.19248 -6.46944 0.0
			CHANNELS 6 Xposition Yposition Zposition Zrotation Xrotation Yrotation 
			JOINT LowerLeg_L
			{
				OFFSET 39.0811 0.0 -1.23785e-05
				CHANNELS 6 Xposition Yposition Zposition Zrotation Xrotation Yrotation 
				JOINT Foot_L
				{
					OFFSET 40.9854 0.0 -1.26872e-05
					CHANNELS 6 Xposition Yposition Zposition Zrotation Xrotation Yrotation 
					JOINT Toes_L
					{
						OFFSET 11.7543 0.0 0.0
						CHANNELS 6 Xposition Yposition Zposition Zrotation Xrotation Yrotation 
						End Site
						{
							OFFSET 0.0 0.0 0.0
						}
					}
				}
			}
		}
		JOINT UpperLeg_R
		{
			OFFSET -2.19251 6.46944 0.0
			CHANNELS 6 Xposition Yposition Zposition Zrotation Xrotation Yrotation 
			JOINT LowerLeg_R
			{
				OFFSET -39.0811 -0.00228153 -0.0401928
				CHANNELS 6 Xposition Yposition Zposition Zrotation Xrotation Yrotation 
				JOINT Foot_R
				{
					OFFSET -40.9854 0.0 0.0
					CHANNELS 6 Xposition Yposition Zposition Zrotation Xrotation Yrotation 
					JOINT Toes_R
					{
						OFFSET -11.7543 0.0 0.0
						CHANNELS 6 Xposition Yposition Zposition Zrotation Xrotation Yrotation 
						End Site
						{
							OFFSET 0.0 0.0 0.0
						}
					}
				}
			}
		}
	}
}
MOTION
Frames:	7
Frame Time:	0.0333333
0.000000 0.000000 0.000000 0.000000 0.000000 -0.000000 -0.864509 92.941700 1.406420 89.113100 0.181402 2.086730 15.735700 0.000005 -0.000001 86.420500 87.542100 -78.475900 8.984550 -0.406207 -0.000000 -2.738620 -1.032550 15.865900 16.377300 -0.000001 -0.000001 -0.529900 2.677260 5.178310 6.456720 -0.000001 -0.000000 2.665070 3.007720 22.855200 12.994200 -0.242716 4.980390 -87.406200 -5.181540 -63.360800 5.348090 -0.000007 -0.000001 -41.427500 -59.919200 -84.626700 24.328600 0.000019 0.000005 2.588710 25.478800 -5.999730 22.291600 -0.000001 0.000005 46.536200 4.306720 19.687900 12.994500 -0.242716 -4.980390 88.747400 4.418820 -74.156500 -5.348130 -0.000001 -0.000004 -60.956000 7.807240 -2.724230 -24.328900 0.000322 -0.000009 1.872300 7.420870 -14.210800 -22.291500 -0.000108 -0.000004 6.377630 5.229880 1.958570 -2.192480 -6.469440 -0.000000 -173.981000 -9.214470 2.070520 39.081100 -0.000007 -0.000012 0.023869 -0.093492 14.322200 40.985400 -0.000006 -0.000013 -0.407338 15.214000 -69.221500 11.754300 -0.000000 0.000003 -0.000172 0.170471 -9.662440 -2.192510 6.469440 -0.000001 176.949000 3.515700 -177.301000 -39.081100 -0.002282 -0.040193 0.046399 -0.184807 13.117400 -40.985400 0.000008 0.000006 -3.734600 3.176810 -69.661400 -11.754300 -0.000006 -0.000006 -0.011445 0.281801 -5.121470
0.000000 0.000000 0.000000 0.000000 0.000000 -0.000000 -0.845242 92.941600 1.361330 89.086700 0.091489 2.135750 15.735700 0.000005 -0.000001 86.684300 87.522100 -78.763300 8.984550 -0.406207 -0.000000 -2.699540 -1.007440 15.819500 16.377300 -0.000001 -0.000001 -0.541733 2.670180 5.173070 6.456720 -0.000001 -0.000000 2.723350 3.036920 22.790600 12.994200 -0.242716 4.980390 -87.429700 -5.140930 -63.389700 5.348090 -0.000007 -0.000001 -41.347100 -59.886200 -84.454100 24.328600 0.000019 0.000005 2.594940 25.540400 -6.000630 22.291600 -0.000001 0.000005 46.553900 4.304700 19.719100 12.994500 -0.242716 -4.980390 88.737200 4.444870 -74.122200 -5.348130 -0.000001 -0.000004 -60.900500 7.718880 -2.663900 -24.328900 0.000322 -0.000009 1.866170 7.551580 -13.931900 -22.291500 -0.000108 -0.000004 6.495290 5.227200 2.027830 -2.192480 -6.469440 -0.000000 -173.987000 -9.170440 2.049160 39.081100 -0.000007 -0.000012 0.025471 -0.098961 14.434100 40.985400 -0.000006 -0.000013 -0.396904 15.065500 -69.294100 11.754300 -0.000000 0.000003 -0.000223 0.171293 -9.629070 -2.192510 6.469440 -0.000001 176.965000 3.384210 -177.293000 -39.081100 -0.002282 -0.040193 0.046428 -0.184868 13.121800 -40.985400 0.000008 0.000006 -3.711330 3.147710 -69.649100 -11.754300 -0.000006 -0.000006 -0.011538 0.282457 -5.094600
0.000000 0.000000 0.000000 0.000000 0.000000 -0.000000 -0.824362 92.934500 1.325580 89.086300 0.043282 2.245910 15.735700 0.000005 -0.000001 86.559800 87.476400 -78.661400 8.984550 -0.406207 -0.000000 -2.608900 -1.015380 15.774400 16.377300 -0.000001 -0.000001 -0.528186 2.680730 5.103420 6.456720 -0.000001 -0.000000 2.694770 3.031180 22.760500 12.994200 -0.242716 4.980390 -87.444400 -5.106790 -63.369500 5.348090 -0.000007 -0.000001 -41.361300 -59.806800 -84.342400 24.328600 0.000019 0.000005 2.560020 25.462400 -5.937150 22.291600 -0.000001 0.000005 46.459800 4.304440 19.723100 12.994500 -0.242716 -4.980390 88.723400 4.486070 -74.097100 -5.348130 -0.000001 -0.000004 -60.835600 7.671820 -2.613510 -24.328900 0.000322 -0.000009 1.871280 7.673130 -13.757000 -22.291500 -0.000108 -0.000004 6.465580 5.225680 2.066870 -2.192480 -6.469440 -0.000000 -173.981000 -9.247930 2.084390 39.081100 -0.000007 -0.000012 0.025666 -0.098807 14.561700 40.985400 -0.000006 -0.000013 -0.363033 15.081100 -69.336600 11.754300 -0.000000 0.000003 -0.000300 0.172526 -9.578990 -2.192510 6.469440 -0.000001 176.943000 3.362040 -177.296000 -39.081100 -0.002282 -0.040193 0.047282 -0.186022 13.292600 -40.985400 0.000008 0.000006 -3.826540 3.189860 -69.692200 -11.754300 -0.000006 -0.000006 -0.011113 0.279440 -5.218120
0.000000 0.000000 0.000000 0.000000 0.000000 -0.000000 -0.810539 92.926700 1.281050 89.078600 -0.027270 2.342270 15.735700 0.000005 -0.000001 86.418000 87.435000 -78.535500 8.984550 -0.406207 -0.000000 -2.526760 -1.025930 15.742900 16.377300 -0.000001 -0.000001 -0.483630 2.662300 5.116380 6.456720 -0.000001 -0.000000 2.665430 3.063290 22.585600 12.994200 -0.242716 4.980390 -87.479400 -5.035170 -63.363300 5.348090 -0.000007 -0.000001 -41.607800 -59.737200 -84.458200 24.328600 0.000019 0.000005 2.534760 25.568800 -5.856230 22.291600 -0.000001 0.000005 46.406500 4.306800 19.686700 12.994500 -0.242716 -4.980390 88.711900 4.524770 -74.091100 -5.348130 -0.000001 -0.000004 -60.817100 7.710470 -2.565640 -24.328900 0.000322 -0.000009 1.870930 7.709480 -13.692500 -22.291500 -0.000108 -0.000004 6.458280 5.224390 2.100150 -2.192480 -6.469440 -0.000000 -173.975000 -9.270170 2.084830 39.081100 -0.000007 -0.000012 0.025866 -0.098572 14.703600 40.985400 -0.000006 -0.000013 -0.334511 15.066500 -69.336800 11.754300 -0.000000 0.000003 -0.000196 0.170855 -9.646830 -2.192510 6.469440 -0.000001 176.952000 3.309570 -177.286000 -39.081100 -0.002282 -0.040193 0.049522 -0.194050 13.388600 -40.985400 0.000008 0.000006 -3.674450 3.175420 -69.722400 -11.754300 -0.000006 -0.000006 -0.011257 0.280472 -5.175900
0.000000 0.000000 0.000000 0.000000 0.000000 -0.000000 -0.790382 92.924700 1.246720 89.090700 -0.030670 2.434050 15.735700 0.000005 -0.000001 86.018600 87.391100 -78.161800 8.984550 -0.406207 -0.000000 -2.439680 -1.059440 15.691200 16.377300 -0.000001 -0.000001 -0.517050 2.656300 5.020390 6.456720 -0.000001 -0.000000 2.701140 3.073820 22.587100 12.994200 -0.242716 4.980390 -87.508200 -4.984900 -63.397100 5.348090 -0.000007 -0.000001 -41.668900 -59.668000 -84.445500 24.328600 0.000019 0.000005 2.467070 25.451600 -5.725020 22.291600 -0.000001 0.000005 46.217800 4.296940 19.839000 12.994500 -0.242716 -4.980390 88.690500 4.591050 -74.061600 -5.348130 -0.000001 -0.000004 -60.786300 7.991240 -2.551270 -24.328900 0.000322 -0.000009 1.899380 7.805900 -13.728700 -22.291500 -0.000108 -0.000004 6.344710 5.223090 2.133680 -2.192480 -6.469440 -0.000000 -173.978000 -9.307610 2.128530 39.081100 -0.000007 -0.000012 0.024942 -0.094734 14.750500 40.985400 -0.000006 -0.000013 -0.314396 15.107600 -69.301000 11.754300 -0.000000 0.000003 -0.000227 0.171363 -9.626230 -2.192510 6.469440 -0.000001 176.919000 3.256840 -177.273000 -39.081100 -0.002282 -0.040193 0.049702 -0.193143 13.499900 -40.985400 0.000008 0.000006 -3.802590 3.195300 -69.744800 -11.754300 -0.000006 -0.000006 -0.011116 0.279463 -5.217180
0.000000 0.000000 0.000000 0.000000 0.000000 -0.000000 -0.782466 92.920900 1.217350 89.092400 0.015546 2.547030 15.735700 0.000005 -0.000001 85.280600 87.346400 -77.447500 8.984550 -0.406207 -0.000000 -2.351710 -1.125690 15.643000 16.377300 -0.000001 -0.000001 -0.512578 2.670190 4.952690 6.456720 -0.000001 -0.000000 2.685150 3.064580 22.543200 12.994200 -0.242716 4.980390 -87.528300 -4.942520 -63.388300 5.348090 -0.000007 -0.000001 -41.920200 -59.540700 -84.613300 24.328600 0.000019 0.000005 2.408990 25.357400 -5.610220 22.291600 -0.000001 0.000005 46.198600 4.295300 19.864300 12.994500 -0.242716 -4.980390 88.683500 4.596750 -73.999900 -5.348130 -0.000001 -0.000004 -60.861200 8.427650 -2.567260 -24.328900 0.000322 -0.000009 1.892000 7.754480 -13.764100 -22.291500 -0.000108 -0.000004 6.266140 5.225700 2.066490 -2.192480 -6.469440 -0.000000 -173.970000 -9.310400 2.163620 39.081100 -0.000007 -0.000012 0.025188 -0.094997 14.850000 40.985400 -0.000006 -0.000013 -0.293335 15.132300 -69.331400 11.754300 -0.000000 0.000003 -0.000273 0.172100 -9.596300 -2.192510 6.469440 -0.000001 176.919000 3.262660 -177.169000 -39.081100 -0.002282 -0.040193 0.050765 -0.197517 13.503600 -40.985400 0.000008 0.000006 -3.647570 3.120690 -69.771000 -11.754300 -0.000006 -0.000006 -0.011286 0.280673 -5.167650
0.000000 0.000000 0.000000 0.000000 0.000000 -0.000000 -0.768925 92.918900 1.177970 89.101900 0.046192 2.607050 15.735700 0.000005 -0.000001 84.904700 87.323300 -77.109100 8.984550 -0.406207 -0.000000 -2.307270 -1.158170 15.567500 16.377300 -0.000001 -0.000001 -0.540085 2.652480 4.904510 6.456720 -0.000001 -0.000000 2.719990 3.091360 22.493000 12.994200 -0.242716 4.980390 -87.558300 -4.884970 -63.400600 5.348090 -0.000007 -0.000001 -42.133300 -59.416300 -84.828200 24.328600 0.000019 0.000005 2.379380 25.343100 -5.544490 22.291600 -0.000001 0.000005 46.149000 4.291260 19.926500 12.994500 -0.242716 -4.980390 88.684100 4.596310 -74.005200 -5.348130 -0.000001 -0.000004 -61.022900 8.723530 -2.469030 -24.328900 0.000322 -0.000009 1.885180 7.632440 -13.925900 -22.291500 -0.000108 -0.000004 6.178880 5.227010 2.032600 -2.192480 -6.469440 -0.000000 -173.977000 -9.317830 2.169300 39.081100 -0.000007 -0.000012 0.024661 -0.092699 14.898000 40.985400 -0.000006 -0.000013 -0.270604 15.186600 -69.288200 11.754300 -0.000000 0.000003 -0.000184 0.170672 -9.654290 -2.192510 6.469440 -0.000001 176.905000 3.291840 -177.175000 -39.081100 -0.002282 -0.040193 0.051971 -0.201322 13.582200 -40.985400 0.000008 0.000006 -3.624290 3.095940 -69.784000 -11.754300 -0.000006 -0.000006 -0.011147 0.279688 -5.207980
